<svg width="122" height="187" viewBox="0 0 122 187" fill="none" xmlns="http://www.w3.org/2000/svg">
<path d="M15.5977 96.5923C15.4565 96.1689 15.6329 95.9572 16.127 95.9572C16.4094 95.9572 17.0799 95.9924 18.1387 96.063C23.503 96.6982 26.4675 98.4273 27.0322 101.25C27.1733 102.097 27.0674 103.015 26.7145 104.003C26.4322 104.92 26.044 105.661 25.5499 106.226C25.197 106.508 24.8441 106.649 24.4911 106.649C24.2088 106.579 23.503 106.367 22.3737 106.014C20.8208 105.379 19.7974 104.708 19.3033 104.003C18.8798 103.226 18.5974 102.768 18.4563 102.626C18.3151 102.485 17.7152 101.78 16.6564 100.509C15.1742 98.5331 14.7859 97.4392 15.4918 97.2275C15.7741 97.2275 15.8094 97.0158 15.5977 96.5923ZM43.9721 89.8171C44.1839 89.182 44.3956 88.8644 44.6074 88.8644C44.8191 88.8644 44.9956 88.6174 45.1368 88.1233C45.2779 87.5587 45.4191 87.2764 45.5603 87.2764C45.9132 87.2764 46.5131 87.4882 47.3601 87.9116C48.2777 88.3351 48.7365 88.6174 48.7365 88.7585C48.7365 89.0408 49.3718 89.5348 50.6423 90.2406C51.7716 91.0169 52.4421 91.7227 52.6539 92.3578C52.8657 92.9224 52.6892 93.5929 52.1245 94.3692C51.6304 95.1455 51.3834 95.6749 51.3834 95.9572C51.3834 96.2395 50.6776 96.8746 49.2659 97.8627C47.9248 98.7801 46.372 99.7329 44.6074 100.721C39.7371 103.332 37.4785 104.779 37.8314 105.061C38.4666 105.132 39.1372 105.026 39.843 104.744C40.5489 104.461 42.384 104.144 45.3485 103.791C47.6072 103.579 48.9836 103.509 49.4776 103.579C50.0423 103.579 50.7834 103.826 51.701 104.32C52.9009 104.955 53.6421 105.661 53.9244 106.438C54.2067 107.214 54.1009 108.202 53.6068 109.402C53.2539 110.249 52.9362 110.813 52.6539 111.095C52.4421 111.378 52.0186 111.554 51.3834 111.625C50.3952 111.836 49.2306 111.554 47.8895 110.778C46.9014 110.213 46.0896 109.896 45.4544 109.825C44.8897 109.755 43.5487 109.755 41.4312 109.825C38.5372 109.966 37.055 110.107 36.9844 110.249C36.9138 110.319 36.9491 111.272 37.0903 113.107L37.1961 115.859L39.9489 115.648C41.1488 115.577 41.9605 115.577 42.384 115.648C42.8075 115.718 43.1957 115.93 43.5486 116.283C44.1133 116.918 44.3251 117.765 44.1839 118.823C43.9722 120.164 43.6192 121.011 43.1251 121.364C42.7016 121.646 41.7488 121.752 40.2665 121.682C38.7137 121.541 37.7961 121.646 37.5138 121.999C37.302 122.282 37.1961 123.305 37.1961 125.069V126.869L41.4312 126.551C44.3251 126.34 46.1602 126.163 46.9366 126.022C47.7836 125.951 48.5248 126.198 49.16 126.763C49.7953 127.328 50.0423 127.963 49.9011 128.669C49.76 129.163 49.6894 129.798 49.6894 130.574C49.6894 131.774 49.1247 132.55 47.9954 132.903C46.8661 133.185 45.525 133.009 43.9721 132.374C43.1251 132.021 41.9252 131.809 40.3724 131.739C38.8196 131.668 37.9373 131.809 37.7255 132.162C37.5844 132.444 37.4432 133.821 37.302 136.291L36.9844 140.102H40.1606C41.7135 140.102 42.6311 140.066 42.9134 139.996C43.1957 139.855 43.4075 139.502 43.5486 138.937C43.7604 138.231 44.1133 137.596 44.6074 137.032C44.9603 136.679 45.2426 136.502 45.4544 136.502C45.7367 136.502 46.3014 136.714 47.1484 137.138C48.3483 137.773 49.2306 138.302 49.7953 138.726C50.0776 139.008 50.7834 139.149 51.9128 139.149C53.1127 139.149 55.7949 139.043 59.9593 138.831C66.3118 138.549 70.6526 138.584 72.9819 138.937C75.3817 139.22 76.5816 139.996 76.5816 141.266C76.5816 142.184 76.4052 143.136 76.0523 144.125C75.6994 145.113 75.3111 145.748 74.8876 146.03C73.8289 146.806 71.9937 146.771 69.3821 145.924C65.7118 144.724 61.9709 144.16 58.1594 144.23H54.5596L51.5952 147.3L44.925 154.181C42.4546 156.934 40.8665 158.451 40.1606 158.733C38.3961 159.439 38.5372 160.004 40.5841 160.427C41.2194 160.498 42.2076 160.604 43.5486 160.745C46.6543 161.098 48.7365 161.274 49.7953 161.274C50.9246 161.274 52.3363 161.521 54.0303 162.015C55.7243 162.509 56.8183 163.003 57.3124 163.497C57.8771 163.991 58.1947 164.591 58.2653 165.297C58.3359 166.003 58.1594 166.638 57.7359 167.202C57.3124 167.767 57.1006 168.332 57.1006 168.896C57.1006 169.461 56.8889 170.025 56.4654 170.59C56.0419 171.155 55.8301 171.649 55.8301 172.072C55.8301 172.496 55.4772 173.166 54.7714 174.084C54.1361 174.93 53.8185 175.742 53.8185 176.518C53.8185 177.506 53.4656 178.565 52.7598 179.694C52.0539 180.823 51.3128 181.529 50.5364 181.811C49.9717 181.953 48.5954 181.776 46.4073 181.282C44.2192 180.788 41.5723 180.612 38.4667 180.753C35.0081 180.823 32.9259 180.965 32.22 181.176C31.5848 181.388 30.9495 182.129 30.3143 183.399C29.679 184.881 28.9379 185.728 28.0909 185.94C27.5968 186.081 27.1733 186.046 26.8204 185.834C26.4675 185.623 25.8675 185.058 25.0205 184.14C23.8912 182.729 23.0442 181.6 22.4795 180.753C18.0328 171.578 16.6917 165.862 18.4563 163.603C18.8798 163.18 19.1974 162.933 19.4092 162.862C19.6915 162.792 20.1503 162.827 20.7855 162.968C21.7737 163.18 23.4677 162.968 25.8675 162.333C28.2674 161.627 29.7143 161.274 30.2084 161.274C30.7025 161.274 31.0554 160.957 31.2671 160.321C31.5495 159.616 31.7965 159.228 32.0083 159.157C32.22 159.016 32.82 158.345 33.8081 157.146C34.7963 155.875 35.4669 155.028 35.8198 154.605C36.3139 154.111 37.5138 152.382 39.4195 149.418C41.3253 146.383 42.2429 144.83 42.1723 144.76C41.8899 144.619 38.2902 144.901 31.373 145.607C28.1262 145.889 25.9381 146.383 24.8088 147.089C24.6676 147.159 24.597 147.265 24.597 147.406C24.597 147.477 24.6676 147.618 24.8088 147.83C24.9499 147.971 25.1617 148.218 25.444 148.571C25.7264 148.853 26.0793 149.206 26.5028 149.629C27.4909 150.617 28.1262 151.323 28.4085 151.747C28.7614 152.17 28.9379 152.735 28.9379 153.44C28.9379 154.499 28.7967 155.275 28.5144 155.769C28.2321 156.263 27.5615 156.899 26.5028 157.675C25.6558 158.451 25.0558 158.875 24.7029 158.945C24.35 159.016 23.75 158.945 22.903 158.733C21.7737 158.31 20.8914 157.64 20.2561 156.722C19.6209 155.734 19.0915 155.064 18.668 154.711C18.2445 154.287 17.6446 153.335 16.8681 151.852C16.1623 150.37 15.5624 149.629 15.0683 149.629C14.433 149.629 13.2331 150.017 11.4685 150.794C9.70395 151.57 8.43345 152.311 7.65703 153.017C6.88061 153.723 6.1042 154.076 5.32778 154.076C4.62195 154.076 3.63378 153.758 2.36328 153.123C0.598698 152.064 -0.177719 150.829 0.0340314 149.418C0.175197 148.641 0.986905 147.971 2.46915 147.406C3.95141 146.771 7.05707 145.818 11.7862 144.548C13.6213 144.124 14.6095 143.56 14.7507 142.854C15.033 141.654 16.0564 141.478 17.821 142.325C18.5269 142.678 19.3739 142.819 20.362 142.748C21.3502 142.607 23.2559 142.219 26.0793 141.584L28.1968 140.949L28.3027 137.138C28.3732 135.303 28.3732 134.209 28.3027 133.856C28.2321 133.503 27.985 133.327 27.5615 133.327C26.8557 133.327 26.1852 133.715 25.5499 134.491C24.8441 135.126 24.1382 135.514 23.4324 135.656C22.7971 135.797 21.8796 135.62 20.6797 135.126C19.7621 134.844 19.1621 134.597 18.8798 134.385C18.668 134.103 18.5622 133.679 18.5622 133.115C18.4916 132.268 18.8445 131.597 19.6209 131.103C20.4679 130.609 22.1266 129.974 24.597 129.198L28.6203 128.139L28.4085 125.493C28.3379 123.728 28.2321 122.776 28.0909 122.634C28.0203 122.493 27.4909 122.67 26.5028 123.164C24.6676 124.011 22.9736 124.011 21.4208 123.164C20.2209 122.387 19.7621 121.611 20.0444 120.835C20.3973 119.988 21.3855 119.317 23.0089 118.823C24.2088 118.541 25.444 118.224 26.7145 117.871L28.6203 117.341L28.9379 114.695C29.1496 112.93 29.1849 111.978 29.0438 111.836C28.832 111.484 27.3851 111.66 24.7029 112.366C22.0913 113.072 20.6797 113.601 20.4679 113.954C20.3267 114.165 19.7621 114.307 18.7739 114.377C17.7152 114.377 16.9034 114.165 16.3388 113.742C15.8447 113.248 15.7388 112.648 16.0212 111.942C16.2329 110.884 16.9034 110.107 18.0328 109.613C19.1621 109.119 21.9149 108.378 26.291 107.39C27.7027 107.108 28.7261 106.826 29.3614 106.543C29.9966 106.191 30.9495 105.414 32.22 104.214C34.4787 102.027 36.9138 99.3447 39.5254 96.1689C42.137 92.9224 43.6192 90.8052 43.9721 89.8171ZM41.7488 164.768C38.7843 164.626 37.0197 164.485 36.455 164.344C35.8904 164.203 35.5374 164.203 35.3963 164.344C35.3257 164.485 33.9493 164.732 31.2671 165.085C28.9379 165.509 27.5262 165.826 27.0322 166.038C26.5381 166.179 26.291 166.532 26.291 167.097C26.291 167.802 26.5381 168.932 27.0322 170.484C27.5262 171.966 27.9144 172.919 28.1968 173.342C28.6909 173.766 29.0085 174.436 29.1497 175.354C29.2202 175.848 29.3261 176.165 29.4673 176.307C29.6084 176.448 29.8555 176.483 30.2084 176.412C31.126 176.201 32.9612 175.883 35.7139 175.46C38.5372 175.107 40.3018 174.93 41.0076 174.93C41.8546 174.93 42.5958 174.719 43.231 174.295C43.9369 173.872 44.2898 173.342 44.2898 172.707C44.2898 172.143 44.6074 171.19 45.2427 169.849C45.9485 168.438 46.3014 167.273 46.3014 166.356V165.085L41.7488 164.768Z" fill="#1E1E1F"/>
<path d="M28.7909 13.4051C29.8492 13.0521 31.2602 13.1227 33.0239 13.6168C34.8582 14.111 36.1633 14.7463 36.9394 15.5228C37.8565 16.3699 38.2798 17.2169 38.2093 18.064C38.1387 18.9111 37.539 19.9347 36.4103 21.1347C35.2815 22.4053 34.7171 23.3936 34.7171 24.0995C34.7171 24.7348 34.5054 25.3348 34.0821 25.8995C33.7294 26.4643 33.4825 27.3113 33.3414 28.4408C33.2003 29.5702 32.777 31.2997 32.0715 33.6292L31.1191 37.2293L31.9657 38.9234C32.389 39.6999 32.6006 40.2646 32.6006 40.6176C32.6006 40.8999 32.389 41.3588 31.9657 41.9941C31.6129 42.7706 31.0838 43.3353 30.3783 43.6883C29.6728 44.0412 28.544 44.3236 26.9919 44.5353C25.8632 44.6765 24.4169 45.1354 22.6532 45.9119C20.8894 46.6883 19.4785 47.5001 18.4202 48.3472C17.1503 49.1943 15.8452 49.6884 14.5047 49.8296L12.5999 50.0414L12.7057 55.971L12.8116 66.5595C12.8821 69.8066 12.9879 71.4302 13.129 71.4302C13.2701 71.4302 14.6106 70.5478 17.1503 68.7831C19.7607 66.9477 21.348 65.7124 21.9124 65.0771C23.4645 63.6653 26.1454 61.4417 29.955 58.4063C33.4825 55.5121 36.0928 53.1826 37.786 51.4179C38.9853 50.2885 39.6555 49.7943 39.7966 49.9355C39.8672 50.0767 39.5144 50.8179 38.7384 52.1591C38.0329 53.5003 37.4685 54.418 37.0452 54.9121C36.6219 55.4062 36.4103 55.7945 36.4103 56.0768C36.4103 56.6416 35.1051 58.724 32.4948 62.3241C29.955 65.8536 27.9444 68.3595 26.4628 69.8419C24.2758 72.1008 21.3127 75.4185 17.5736 79.7951C16.2332 81.3481 14.8222 82.9011 13.3407 84.4541C11.8592 86.0777 11.1184 86.9953 11.1184 87.2071C11.1184 87.4895 10.6245 87.8071 9.63685 88.1601C8.71971 88.5836 7.97895 88.7248 7.41456 88.5836C6.92071 88.513 6.32104 88.0189 5.61555 87.1012C4.98061 86.2541 4.66314 85.4776 4.66314 84.7717C4.66314 83.7129 4.06347 82.654 2.86414 81.5952C2.29974 81.1011 2.12337 80.4658 2.33502 79.6893C2.61721 78.8422 2.72304 78.101 2.65249 77.4657C2.58194 76.8304 2.82886 76.3362 3.39325 75.9833C4.16929 75.4185 5.08643 73.3361 6.14467 69.736C6.56796 68.2536 6.81489 66.7713 6.88544 65.2889C6.95599 63.7359 6.99126 60.1358 6.99126 54.4886C6.85016 46.5119 6.95598 42.4176 7.30873 42.2059C7.66148 41.9235 8.3317 41.8529 9.31938 41.9941C10.3071 42.1353 11.9297 41.6764 14.1873 40.6176C16.4448 39.4881 18.138 38.747 19.2668 38.394C21.4538 37.6881 22.5473 36.8763 22.5473 35.9586C22.5473 35.5351 22.8648 34.6527 23.4998 33.3115C24.2758 31.8997 25.0871 29.9938 25.9337 27.5937C26.7803 25.1936 27.2036 23.6407 27.2036 22.9348C27.2036 22.4406 27.4152 21.8053 27.8385 21.0288L28.4735 19.6523L27.0978 19.97C26.1806 20.1111 25.0871 20.2523 23.8172 20.3935C22.3357 20.6053 20.6425 21.0288 18.7377 21.6641C16.8329 22.2288 15.5277 22.7583 14.8222 23.2524C14.3284 23.6759 13.9404 23.8877 13.6582 23.8877C13.4465 23.8877 13.0585 23.7112 12.4941 23.3583C11.577 22.9348 10.9067 22.4053 10.4834 21.77C10.2012 21.4171 10.0601 21.1347 10.0601 20.9229C10.0601 20.7112 10.2365 20.3935 10.5893 19.97C12.0708 17.9228 16.6918 16.0875 24.4522 14.4639C26.6392 14.0404 28.0855 13.6874 28.7909 13.4051ZM48.3683 1.0165C49.356 0.169418 50.0968 -0.148238 50.5906 0.0635299C51.0845 0.275302 52.3544 1.54593 54.4003 3.8754C56.4462 6.20488 56.8695 8.64024 55.6702 11.1815C55.0352 12.3109 54.365 14.2875 53.6595 17.1111C52.954 19.8641 52.6013 21.7347 52.6013 22.723C52.6013 23.2877 52.2133 24.4877 51.4372 26.3231C50.7317 28.1584 50.4143 29.1467 50.4848 29.2879C50.6259 29.3585 51.8605 29.0055 54.1886 28.229C56.5873 27.4525 58.9154 26.8525 61.173 26.429C63.5011 25.9348 65.3001 25.4054 66.57 24.8407C67.8399 24.276 69.4978 23.9936 71.5437 23.9936C72.9547 23.9936 73.8719 24.0642 74.2951 24.2054C74.789 24.276 75.2476 24.4877 75.6709 24.8407C76.5175 25.8289 77.0113 26.6407 77.1524 27.276C77.2935 27.8408 77.1877 28.5114 76.8349 29.2879C76.2705 30.5585 75.5298 31.3703 74.6126 31.7232C73.766 32.0056 72.2845 32.1821 70.168 32.2527C64.5946 32.2527 58.986 33.2056 53.3421 35.1116C51.2256 35.888 49.6735 36.241 48.6858 36.1704C48.0509 36.0998 47.5923 36.1704 47.3101 36.3822C47.0984 36.5939 46.7457 37.0881 46.2519 37.8646L45.4053 39.6646L46.6752 40.2999C47.5217 40.7941 48.7916 41.9235 50.4848 43.6883C52.178 45.3824 53.0246 46.5119 53.0246 47.0766C53.0246 47.2178 53.3773 47.8531 54.0828 48.9825L55.2469 50.7826L55.8818 48.7708C56.4462 47.2884 56.9401 45.6648 57.3633 43.9C58.2099 40.6529 58.7743 38.6764 59.0565 37.9705C59.4093 37.194 59.8326 36.6292 60.3264 36.2763C61.3141 35.7822 62.5134 35.8175 63.9244 36.3822C65.3354 36.9469 66.3231 37.8646 66.8875 39.1352C67.3813 40.4764 67.5577 41.8882 67.4166 43.3706C67.3461 44.853 66.9228 46.053 66.1467 46.9707C65.8645 47.3942 65.7234 47.7472 65.7234 48.0296C65.7234 48.3119 65.5118 48.5943 65.0885 48.8766C64.6652 49.159 64.383 50.1473 64.2419 51.8414C64.0302 54.3827 63.4659 56.818 62.5487 59.1475C62.1254 60.0652 64.3124 62.5005 69.1098 66.4536C72.7078 69.2772 77.0466 71.6773 82.1261 73.6538L89.2163 76.4068C92.1088 77.6068 93.9784 78.1363 94.825 77.9951C95.6715 77.8539 96.0948 77.9245 96.0948 78.2069C96.0948 78.4892 96.5181 78.7716 97.3647 79.0539C99.1284 79.8304 100.01 80.7128 100.01 81.7011C100.01 82.3364 99.6223 82.8658 98.8463 83.2894C98.0702 83.7129 96.6945 84.1717 94.7191 84.6659C92.4616 85.2306 91.1564 85.5835 90.8037 85.7247C90.5215 85.9365 89.7807 86.2188 88.5814 86.5718C87.4526 86.9953 86.7823 87.3836 86.5707 87.7365C86.4296 88.0895 85.9005 88.4424 84.9833 88.7954C84.3484 89.0072 83.7487 89.0425 83.1843 88.9013C82.6905 88.7601 81.597 88.3013 79.9038 87.5248C74.0482 84.7717 66.958 79.4422 58.6332 71.5361C57.3634 70.3361 56.5873 69.736 56.3051 69.736C56.0935 69.736 55.4585 70.089 54.4003 70.7949C53.342 71.5008 52.4249 72.2067 51.6489 72.9126C50.8728 73.5479 48.1214 75.1009 43.3946 77.5716C38.7384 79.9716 36.1633 81.1716 35.6695 81.1716C35.0345 81.1716 33.4825 81.6658 31.0132 82.654C28.8262 83.5011 27.38 83.96 26.6745 84.0306C25.969 84.1717 25.0166 84.0305 23.8172 83.607L22.1241 83.0776L25.6162 80.7481C27.8033 79.3363 30.0961 77.8892 32.4948 76.4068C34.964 74.9244 37.0805 73.442 38.8442 71.9596C40.6785 70.4067 43.571 67.6183 47.5217 63.5947C49.4266 61.7593 50.4848 60.4887 50.6965 59.7828C50.9081 59.0063 50.5906 57.771 49.744 56.0768C48.8975 54.5944 48.1567 53.0062 47.5217 51.312L45.9344 47.2884C45.5816 46.3001 45.3347 45.453 45.1936 44.7471C45.0525 43.9706 44.7703 43.3353 44.347 42.8412C44.0648 42.4176 43.8179 42.2765 43.6063 42.4176C43.3946 42.4882 42.9008 42.9118 42.1247 43.6883C40.2199 45.9471 37.6449 48.5237 34.3996 51.4179C33.1297 52.4767 32.2831 53.2179 31.8598 53.6415C31.4365 54.065 30.8369 54.4886 30.0608 54.9121C29.3553 55.2651 28.4382 55.7592 27.3094 56.3945C26.9567 56.6063 26.6392 56.7827 26.357 56.9239C26.0748 57.0651 25.8632 57.171 25.7221 57.2416C25.581 57.2416 25.5104 57.2416 25.5104 57.2416C25.5104 56.6063 26.4276 55.2651 28.2618 53.2179C30.6605 50.5355 32.1773 48.559 32.8123 47.2884C32.9534 46.7942 33.3061 46.1589 33.8705 45.3824C34.4349 44.5353 34.8582 43.7942 35.1404 43.1588C35.4931 42.4529 36.0575 41.5353 36.8335 40.4058C38.4562 38.0763 39.973 34.3704 41.384 29.2879C42.0895 26.3937 42.6186 24.4171 42.9713 23.3583C43.8179 20.817 44.8409 15.9463 46.0402 8.74612C46.5341 5.71075 46.8868 3.80481 47.0984 3.02832C47.3101 2.18124 47.7334 1.51063 48.3683 1.0165Z" fill="#1E1E1F"/>
<path fill-rule="evenodd" clip-rule="evenodd" d="M69.9896 128.097L68.2175 129.869L66.4454 128.097L68.2175 126.324L69.9896 128.097ZM67.392 128.097L68.2175 128.922L69.0429 128.097L68.2175 127.271L67.392 128.097Z" fill="#EA5757"/>
<path fill-rule="evenodd" clip-rule="evenodd" d="M68.0847 126.191L66.3126 127.964L64.5405 126.191L66.3126 124.418L68.0847 126.191ZM65.4872 126.191L66.3126 127.017L67.138 126.191L66.3126 125.365L65.4872 126.191Z" fill="#EA5757"/>
<path fill-rule="evenodd" clip-rule="evenodd" d="M71.8944 126.191L70.1223 127.964L68.3502 126.191L70.1223 124.418L71.8944 126.191ZM69.2969 126.191L70.1223 127.017L70.9478 126.191L70.1223 125.365L69.2969 126.191Z" fill="#EA5757"/>
<path fill-rule="evenodd" clip-rule="evenodd" d="M69.9896 124.285L68.2175 126.058L66.4454 124.285L68.2175 122.512L69.9896 124.285ZM67.392 124.285L68.2175 125.111L69.0429 124.285L68.2175 123.459L67.392 124.285Z" fill="#EA5757"/>
<path fill-rule="evenodd" clip-rule="evenodd" d="M68.2175 121.422C70.85 121.422 72.9841 123.557 72.9841 126.191C72.9841 128.825 70.85 130.96 68.2175 130.96C65.5849 130.96 63.4508 128.825 63.4508 126.191C63.4508 123.557 65.5849 121.422 68.2175 121.422ZM68.2175 121.942C65.8721 121.942 63.9708 123.845 63.9708 126.191C63.9708 128.537 65.8721 130.439 68.2175 130.439C70.5628 130.439 72.4641 128.537 72.4641 126.191C72.4641 123.845 70.5628 121.942 68.2175 121.942Z" fill="#EA5757"/>
<path d="M64.6699 107.746H63.4508V97.8936H64.6699V107.746Z" fill="#1E1E1F"/>
<path d="M66.2132 102.558L71.5424 107.746H69.8814L64.6699 102.592L69.2566 97.8936H70.9023L66.2132 102.558Z" fill="#1E1E1F"/>
<path fill-rule="evenodd" clip-rule="evenodd" d="M82.5118 107.746H81.2013L80.2453 105.169H75.9096L74.9536 107.746H73.6736L77.4375 97.8936H78.7175L82.5118 107.746ZM76.3314 104.032H79.8235L78.0775 99.3262L76.3314 104.032Z" fill="#1E1E1F"/>
<path d="M87.0851 107.746H85.866V97.8936H87.0851V107.746Z" fill="#1E1E1F"/>
<path d="M99.1276 99.0304L92.6216 106.609H99.1276V107.746H91.0513V106.609L97.5861 99.0304H91.0513V97.8936H99.1276V99.0304Z" fill="#1E1E1F"/>
<path d="M109.8 99.0304H104.01V102.274H108.749V103.411H104.01V106.609H109.816V107.746H102.791V97.8936H109.8V99.0304Z" fill="#1E1E1F"/>
<path d="M120.781 105.867V97.8936H122V107.746H120.781L114.686 99.7864V107.746H113.467V97.8936H114.686L120.781 105.867Z" fill="#1E1E1F"/>
<path fill-rule="evenodd" clip-rule="evenodd" d="M82.8899 112.16C82.9972 112.16 83.0982 112.169 83.1929 112.188C83.294 112.201 83.3887 112.223 83.477 112.255H85.3995V113.071C85.128 113.071 84.8565 113.021 84.5851 112.92C84.396 112.847 84.2262 112.773 84.0756 112.698C84.2034 112.787 84.3132 112.887 84.4051 112.996C84.5503 113.16 84.6577 113.347 84.7271 113.556C84.8029 113.758 84.8408 113.98 84.8408 114.221C84.8408 114.645 84.7492 115.009 84.5661 115.313C84.3893 115.617 84.1526 115.851 83.8559 116.016C83.5591 116.174 83.2371 116.253 82.8899 116.253C82.549 116.272 82.2838 116.307 82.0944 116.358C81.9113 116.408 81.8198 116.516 81.8198 116.681C81.8198 116.775 81.8545 116.855 81.9239 116.918C81.9997 116.975 82.1102 117.003 82.2554 117.003H83.2403C83.5686 117.003 83.8685 117.048 84.14 117.136C84.4114 117.231 84.6292 117.386 84.7934 117.602C84.9575 117.823 85.0396 118.124 85.0396 118.504V118.903H84.282V118.694C84.282 118.358 84.1936 118.115 84.0168 117.963C83.8464 117.811 83.5875 117.735 83.2403 117.735H82.2933C82.0849 117.735 81.9018 117.716 81.744 117.678C81.5925 117.646 81.4662 117.595 81.3652 117.526C81.2642 117.456 81.1884 117.371 81.1379 117.269C81.0874 117.168 81.0622 117.054 81.0622 116.927C81.0622 116.687 81.1348 116.506 81.28 116.386C81.4252 116.259 81.6051 116.18 81.8198 116.149C81.9427 116.131 82.0626 116.123 82.1794 116.125C82.0963 116.094 82.0143 116.058 81.9334 116.016C81.6367 115.851 81.3936 115.617 81.2042 115.313C81.0211 115.009 80.9296 114.645 80.9296 114.221C80.9296 113.796 81.0211 113.432 81.2042 113.128C81.3873 112.818 81.6272 112.581 81.9239 112.416C82.2207 112.245 82.5427 112.16 82.8899 112.16ZM82.8899 112.882C82.6816 112.882 82.4858 112.935 82.3028 113.043C82.1197 113.144 81.9713 113.293 81.8577 113.489C81.744 113.686 81.6872 113.929 81.6872 114.221C81.6872 114.506 81.744 114.746 81.8577 114.942C81.9713 115.139 82.1197 115.288 82.3028 115.389C82.4858 115.49 82.6816 115.541 82.8899 115.541C83.0982 115.541 83.2908 115.49 83.4676 115.389C83.6507 115.288 83.799 115.139 83.9127 114.942C84.0263 114.746 84.0831 114.506 84.0831 114.221C84.0831 113.936 84.0263 113.695 83.9127 113.499C83.8053 113.296 83.6601 113.144 83.477 113.043C83.294 112.935 83.0982 112.882 82.8899 112.882Z" fill="#1E1E1F"/>
<path d="M99.3922 116.003L100.783 112.255H101.588L98.9456 118.903H98.1217L99.0027 116.931L97.1841 112.255H97.9986L99.3922 116.003Z" fill="#1E1E1F"/>
<path fill-rule="evenodd" clip-rule="evenodd" d="M71.8553 112.16C72.3162 112.16 72.7045 112.264 73.0202 112.473C73.3421 112.676 73.5789 112.977 73.7304 113.375C73.8883 113.768 73.9514 114.252 73.9198 114.829H70.3212C70.3527 115.139 70.438 115.411 70.5769 115.645C70.7158 115.88 70.8988 116.063 71.1261 116.196C71.3534 116.323 71.6123 116.386 71.9027 116.386C72.2247 116.386 72.4961 116.304 72.7171 116.139C72.9444 115.968 73.0991 115.747 73.1811 115.474H73.8914C73.8409 115.785 73.7273 116.063 73.5505 116.31C73.38 116.551 73.1527 116.744 72.8686 116.889C72.5908 117.029 72.2689 117.098 71.9027 117.098C71.4607 117.098 71.063 116.994 70.7094 116.785C70.3559 116.57 70.0749 116.278 69.8666 115.911C69.6646 115.538 69.5635 115.113 69.5635 114.639C69.5635 114.164 69.6614 113.739 69.8571 113.366C70.0591 112.992 70.3338 112.698 70.681 112.483C71.0283 112.267 71.4197 112.16 71.8553 112.16ZM71.8837 112.872C71.4923 112.872 71.164 112.986 70.8988 113.214C70.6337 113.442 70.4569 113.752 70.3685 114.145H73.1433C73.118 113.727 72.9823 113.41 72.736 113.195C72.4961 112.98 72.212 112.872 71.8837 112.872Z" fill="#1E1E1F"/>
<path d="M76.4498 112.16C76.7655 112.16 77.0307 112.223 77.2453 112.35C77.4663 112.476 77.6336 112.657 77.7472 112.891C77.8672 113.119 77.9303 113.385 77.9366 113.689H77.2832C77.239 113.404 77.1475 113.198 77.0086 113.071C76.876 112.939 76.6834 112.872 76.4309 112.872C76.172 112.872 75.9732 112.929 75.8343 113.043C75.6954 113.157 75.6259 113.309 75.6259 113.499C75.6259 113.638 75.6764 113.755 75.7774 113.85C75.8785 113.939 76.0079 114.021 76.1657 114.097C76.3299 114.167 76.5035 114.24 76.6866 114.316C76.8697 114.392 77.0464 114.468 77.2169 114.544C77.3874 114.62 77.5389 114.708 77.6715 114.81C77.8041 114.911 77.9082 115.037 77.984 115.189C78.0661 115.335 78.1071 115.519 78.1071 115.74C78.1071 116.006 78.044 116.244 77.9177 116.453C77.7977 116.655 77.6178 116.813 77.3779 116.927C77.1443 117.041 76.857 117.098 76.5161 117.098C76.2068 117.098 75.9416 117.06 75.7206 116.984C75.506 116.902 75.326 116.798 75.1808 116.671C75.0356 116.538 74.922 116.399 74.8399 116.253C74.7641 116.107 74.7136 115.965 74.6884 115.826C74.6631 115.686 74.6568 115.569 74.6694 115.474H75.3702C75.3892 115.747 75.4902 115.968 75.6733 116.139C75.8627 116.31 76.1342 116.396 76.4877 116.396C76.7024 116.396 76.8697 116.367 76.9896 116.31C77.1159 116.253 77.2074 116.177 77.2643 116.082C77.3211 115.981 77.3495 115.87 77.3495 115.75C77.3495 115.604 77.3116 115.49 77.2358 115.408C77.1664 115.319 77.0685 115.246 76.9423 115.189C76.8223 115.132 76.6834 115.079 76.5256 115.028C76.3425 114.958 76.1531 114.885 75.9574 114.81C75.768 114.727 75.588 114.632 75.4176 114.525C75.2534 114.411 75.1209 114.274 75.0198 114.116C74.9188 113.952 74.8683 113.755 74.8683 113.527C74.8683 113.337 74.9062 113.16 74.982 112.996C75.0577 112.825 75.165 112.679 75.3039 112.559C75.4491 112.432 75.6165 112.334 75.8059 112.264C76.0016 112.195 76.2162 112.16 76.4498 112.16Z" fill="#1E1E1F"/>
<path d="M95.0757 112.16C95.3914 112.16 95.6565 112.223 95.8712 112.35C96.0921 112.476 96.2595 112.657 96.3731 112.891C96.4931 113.119 96.5562 113.385 96.5625 113.689H95.9091C95.8649 113.404 95.7733 113.198 95.6344 113.071C95.5018 112.939 95.3093 112.872 95.0567 112.872C94.7979 112.872 94.599 112.929 94.4601 113.043C94.3212 113.157 94.2518 113.309 94.2518 113.499C94.2518 113.638 94.3023 113.755 94.4033 113.85C94.5043 113.939 94.6337 114.021 94.7916 114.097C94.9557 114.167 95.1294 114.24 95.3124 114.316C95.4955 114.392 95.6723 114.468 95.8428 114.544C96.0132 114.62 96.1648 114.708 96.2973 114.81C96.4299 114.911 96.5341 115.037 96.6099 115.189C96.6919 115.335 96.733 115.519 96.733 115.74C96.733 116.006 96.6698 116.244 96.5436 116.453C96.4236 116.655 96.2437 116.813 96.0038 116.927C95.7702 117.041 95.4829 117.098 95.142 117.098C94.8326 117.098 94.5675 117.06 94.3465 116.984C94.1318 116.902 93.9519 116.798 93.8067 116.671C93.6615 116.538 93.5478 116.399 93.4658 116.253C93.39 116.107 93.3395 115.965 93.3142 115.826C93.289 115.686 93.2827 115.569 93.2953 115.474H93.9961C94.015 115.747 94.1161 115.968 94.2991 116.139C94.4885 116.31 94.76 116.396 95.1136 116.396C95.3282 116.396 95.4955 116.367 95.6155 116.31C95.7418 116.253 95.8333 116.177 95.8901 116.082C95.9469 115.981 95.9754 115.87 95.9754 115.75C95.9754 115.604 95.9375 115.49 95.8617 115.408C95.7923 115.319 95.6944 115.246 95.5681 115.189C95.4482 115.132 95.3093 115.079 95.1514 115.028C94.9684 114.958 94.779 114.885 94.5832 114.81C94.3938 114.727 94.2139 114.632 94.0434 114.525C93.8793 114.411 93.7467 114.274 93.6457 114.116C93.5447 113.952 93.4942 113.755 93.4942 113.527C93.4942 113.337 93.5321 113.16 93.6078 112.996C93.6836 112.825 93.7909 112.679 93.9298 112.559C94.075 112.432 94.2423 112.334 94.4317 112.264C94.6274 112.195 94.8421 112.16 95.0757 112.16Z" fill="#1E1E1F"/>
<path d="M103.852 112.16C104.168 112.16 104.433 112.223 104.648 112.35C104.869 112.476 105.036 112.657 105.15 112.891C105.27 113.119 105.333 113.385 105.339 113.689H104.686C104.641 113.404 104.55 113.198 104.411 113.071C104.278 112.939 104.086 112.872 103.833 112.872C103.574 112.872 103.376 112.929 103.237 113.043C103.098 113.157 103.028 113.309 103.028 113.499C103.028 113.638 103.079 113.755 103.18 113.85C103.281 113.939 103.41 114.021 103.568 114.097C103.732 114.167 103.906 114.24 104.089 114.316C104.272 114.392 104.449 114.468 104.619 114.544C104.79 114.62 104.941 114.708 105.074 114.81C105.206 114.911 105.311 115.037 105.386 115.189C105.468 115.335 105.51 115.519 105.51 115.74C105.51 116.006 105.446 116.244 105.32 116.453C105.2 116.655 105.02 116.813 104.78 116.927C104.547 117.041 104.259 117.098 103.919 117.098C103.609 117.098 103.344 117.06 103.123 116.984C102.908 116.902 102.728 116.798 102.583 116.671C102.438 116.538 102.324 116.399 102.242 116.253C102.167 116.107 102.116 115.965 102.091 115.826C102.066 115.686 102.059 115.569 102.072 115.474H102.773C102.792 115.747 102.893 115.968 103.076 116.139C103.265 116.31 103.537 116.396 103.89 116.396C104.105 116.396 104.272 116.367 104.392 116.31C104.518 116.253 104.61 116.177 104.667 116.082C104.723 115.981 104.752 115.87 104.752 115.75C104.752 115.604 104.714 115.49 104.638 115.408C104.569 115.319 104.471 115.246 104.345 115.189C104.225 115.132 104.086 115.079 103.928 115.028C103.745 114.958 103.555 114.885 103.36 114.81C103.17 114.727 102.99 114.632 102.82 114.525C102.656 114.411 102.523 114.274 102.422 114.116C102.321 113.952 102.271 113.755 102.271 113.527C102.271 113.337 102.309 113.16 102.384 112.996C102.46 112.825 102.567 112.679 102.706 112.559C102.852 112.432 103.019 112.334 103.208 112.264C103.404 112.195 103.619 112.16 103.852 112.16Z" fill="#1E1E1F"/>
<path fill-rule="evenodd" clip-rule="evenodd" d="M111.761 112.16C112.222 112.16 112.61 112.264 112.926 112.473C113.248 112.676 113.485 112.977 113.636 113.375C113.794 113.768 113.857 114.252 113.826 114.829H110.227C110.259 115.139 110.344 115.411 110.483 115.645C110.622 115.88 110.805 116.063 111.032 116.196C111.259 116.323 111.518 116.386 111.809 116.386C112.131 116.386 112.402 116.304 112.623 116.139C112.85 115.968 113.005 115.747 113.087 115.474H113.797C113.747 115.785 113.633 116.063 113.456 116.31C113.286 116.551 113.059 116.744 112.775 116.889C112.497 117.029 112.175 117.098 111.809 117.098C111.367 117.098 110.969 116.994 110.615 116.785C110.262 116.57 109.981 116.278 109.773 115.911C109.571 115.538 109.469 115.113 109.469 114.639C109.469 114.164 109.567 113.739 109.763 113.366C109.965 112.992 110.24 112.698 110.587 112.483C110.934 112.267 111.326 112.16 111.761 112.16ZM111.79 112.872C111.398 112.872 111.07 112.986 110.805 113.214C110.54 113.442 110.363 113.752 110.274 114.145H113.049C113.024 113.727 112.888 113.41 112.642 113.195C112.402 112.98 112.118 112.872 111.79 112.872Z" fill="#1E1E1F"/>
<path fill-rule="evenodd" clip-rule="evenodd" d="M65.449 110.83C66.0677 110.83 66.5854 110.912 67.0021 111.077C67.4251 111.235 67.7629 111.457 68.0154 111.742C68.2679 112.027 68.451 112.353 68.5647 112.72C68.6783 113.087 68.7351 113.477 68.7351 113.888C68.7351 114.3 68.6752 114.692 68.5552 115.066C68.4352 115.44 68.2427 115.772 67.9775 116.063C67.7187 116.354 67.3809 116.586 66.9642 116.756C66.5475 116.921 66.0425 117.003 65.449 117.003H63.4508V110.83H65.449ZM64.2084 116.291H65.449C65.9478 116.291 66.3581 116.221 66.6801 116.082C67.0084 115.943 67.2673 115.759 67.4567 115.531C67.6461 115.297 67.7786 115.037 67.8544 114.753C67.9365 114.468 67.9775 114.18 67.9775 113.888C67.9775 113.597 67.9365 113.312 67.8544 113.033C67.7786 112.755 67.6461 112.505 67.4567 112.283C67.2673 112.055 67.0084 111.875 66.6801 111.742C66.3581 111.609 65.9478 111.542 65.449 111.542H64.2084V116.291Z" fill="#1E1E1F"/>
<path d="M79.9008 117.003H79.1432V112.255H79.9008V117.003Z" fill="#1E1E1F"/>
<path d="M88.677 112.16C88.9295 112.16 89.1568 112.198 89.3588 112.274C89.5609 112.35 89.7313 112.46 89.8702 112.606C90.0091 112.752 90.1164 112.929 90.1922 113.138C90.268 113.341 90.3058 113.572 90.3058 113.831V117.003H89.5482V114.021C89.5482 113.654 89.463 113.379 89.2925 113.195C89.1221 113.011 88.8664 112.92 88.5255 112.92C88.2666 112.92 88.0267 112.986 87.8057 113.119C87.5848 113.252 87.4017 113.436 87.2565 113.67C87.1624 113.824 87.0929 113.996 87.0481 114.185V117.003H86.2905V112.255H87.0481V113.594C87.0818 113.452 87.1259 113.319 87.1807 113.195C87.2817 112.98 87.4048 112.796 87.55 112.644C87.7015 112.486 87.872 112.365 88.0614 112.283C88.2571 112.201 88.4623 112.16 88.677 112.16Z" fill="#1E1E1F"/>
<path d="M107.919 112.255H108.932V112.967H107.919V117.003H107.161V112.967H106.148V112.255H107.161V111.02H107.919V112.255Z" fill="#1E1E1F"/>
<path d="M120.371 112.16C120.624 112.16 120.851 112.198 121.053 112.274C121.255 112.35 121.425 112.46 121.564 112.606C121.703 112.752 121.811 112.929 121.886 113.138C121.962 113.341 122 113.572 122 113.831V117.003H121.242V114.021C121.242 113.654 121.157 113.379 120.987 113.195C120.816 113.011 120.561 112.92 120.22 112.92C119.961 112.92 119.721 112.986 119.5 113.119C119.279 113.252 119.096 113.436 118.951 113.67C118.899 113.755 118.855 113.844 118.818 113.94V117.003H118.06V114.021C118.06 113.654 117.975 113.379 117.805 113.195C117.634 113.011 117.379 112.92 117.038 112.92C116.779 112.92 116.539 112.986 116.318 113.119C116.097 113.252 115.914 113.436 115.769 113.67C115.675 113.824 115.605 113.996 115.56 114.185V117.003H114.803V112.255H115.56V113.594C115.594 113.452 115.638 113.319 115.693 113.195C115.794 112.98 115.917 112.796 116.062 112.644C116.214 112.486 116.384 112.365 116.574 112.283C116.769 112.201 116.975 112.16 117.189 112.16C117.442 112.16 117.669 112.198 117.871 112.274C118.073 112.35 118.243 112.46 118.382 112.606C118.521 112.752 118.629 112.929 118.704 113.138C118.739 113.231 118.766 113.331 118.785 113.437C118.811 113.353 118.841 113.272 118.875 113.195C118.976 112.98 119.099 112.796 119.244 112.644C119.396 112.486 119.566 112.365 119.756 112.283C119.951 112.201 120.156 112.16 120.371 112.16Z" fill="#1E1E1F"/>
<path d="M80.0144 111.276H79.0296V110.355H80.0144V111.276Z" fill="#1E1E1F"/>
</svg>
