<svg width="59" height="22" viewBox="0 0 59 22" fill="none" xmlns="http://www.w3.org/2000/svg">
<g clip-path="url(#clip0_54_5)">
<path d="M1.66987 10.7211H0.450806V0.868774H1.66987V10.7211Z" fill="#1E1E1F"/>
<path d="M3.21322 5.53301L8.54238 10.7211H6.88139L1.66987 5.56759L6.25662 0.868774H7.90236L3.21322 5.53301Z" fill="#1E1E1F"/>
<path fill-rule="evenodd" clip-rule="evenodd" d="M19.5118 10.7211H18.2013L17.2453 8.14436H12.9097L11.9536 10.7211H10.6736L14.4375 0.868774H15.7175L19.5118 10.7211ZM13.3314 7.00755H16.8236L15.0775 2.3014L13.3314 7.00755Z" fill="#1E1E1F"/>
<path d="M24.0851 10.7211H22.8661V0.868774H24.0851V10.7211Z" fill="#1E1E1F"/>
<path d="M36.1276 2.00559L29.6217 9.58431H36.1276V10.7211H28.0513V9.58431L34.5861 2.00559H28.0513V0.868774H36.1276V2.00559Z" fill="#1E1E1F"/>
<path d="M46.8004 2.00559H41.0098V5.24929H45.749V6.38609H41.0098V9.58431H46.8156V10.7211H39.7908V0.868774H46.8004V2.00559Z" fill="#1E1E1F"/>
<path d="M57.7809 8.84257V0.868774H59V10.7211H57.7809L51.6856 2.76165V10.7211H50.4665V0.868774H51.6856L57.7809 8.84257Z" fill="#1E1E1F"/>
<path fill-rule="evenodd" clip-rule="evenodd" d="M19.8899 15.1349C19.9972 15.1349 20.0983 15.1444 20.193 15.1634C20.294 15.1761 20.3887 15.1982 20.4771 15.2299H22.3995V16.0467C22.128 16.0467 21.8566 15.996 21.5851 15.8947C21.396 15.8225 21.2262 15.7486 21.0756 15.6731C21.2034 15.7626 21.3133 15.8618 21.4051 15.9707C21.5504 16.1353 21.6577 16.3221 21.7271 16.5311C21.8029 16.7337 21.8408 16.9553 21.8408 17.1959C21.8408 17.6201 21.7492 17.9842 21.5661 18.2881C21.3894 18.592 21.1526 18.8263 20.8559 18.9909C20.5591 19.1492 20.2372 19.2283 19.8899 19.2283C19.549 19.2473 19.2838 19.2821 19.0944 19.3328C18.9113 19.3834 18.8198 19.4911 18.8198 19.6557C18.8198 19.7507 18.8545 19.8298 18.924 19.8931C18.9997 19.9501 19.1102 19.9786 19.2554 19.9786H20.2403C20.5686 19.9786 20.8685 20.0229 21.14 20.1116C21.4115 20.2066 21.6293 20.3617 21.7934 20.577C21.9576 20.7986 22.0396 21.0993 22.0396 21.4792V21.8781H21.282V21.6692C21.282 21.3336 21.1936 21.0898 21.0169 20.9379C20.8464 20.7859 20.5876 20.7099 20.2403 20.7099H19.2933C19.085 20.7099 18.9019 20.6909 18.744 20.6529C18.5925 20.6213 18.4662 20.5706 18.3652 20.501C18.2642 20.4313 18.1885 20.3459 18.1379 20.2446C18.0874 20.1432 18.0622 20.0293 18.0622 19.9026C18.0622 19.662 18.1348 19.4816 18.28 19.3613C18.4252 19.2347 18.6051 19.1555 18.8198 19.1239C18.9428 19.1057 19.0626 19.098 19.1794 19.1006C19.0963 19.0697 19.0143 19.0331 18.9334 18.9909C18.6367 18.8263 18.3936 18.592 18.2042 18.2881C18.0211 17.9842 17.9296 17.6201 17.9296 17.1959C17.9296 16.7717 18.0211 16.4076 18.2042 16.1037C18.3873 15.7934 18.6272 15.556 18.924 15.3914C19.2207 15.2204 19.5427 15.1349 19.8899 15.1349ZM19.8899 15.8567C19.6816 15.8567 19.4859 15.9106 19.3028 16.0182C19.1197 16.1195 18.9713 16.2683 18.8577 16.4646C18.744 16.6609 18.6872 16.9046 18.6872 17.1959C18.6872 17.4808 18.744 17.7214 18.8577 17.9177C18.9713 18.114 19.1197 18.2628 19.3028 18.3641C19.4859 18.4654 19.6816 18.516 19.8899 18.516C20.0983 18.516 20.2908 18.4654 20.4676 18.3641C20.6507 18.2628 20.7991 18.114 20.9127 17.9177C21.0263 17.7214 21.0832 17.4808 21.0832 17.1959C21.0832 16.9109 21.0263 16.6703 20.9127 16.4741C20.8054 16.2714 20.6602 16.1195 20.4771 16.0182C20.294 15.9106 20.0983 15.8567 19.8899 15.8567Z" fill="#1E1E1F"/>
<path d="M36.3922 18.9778L37.7828 15.2299H38.5878L35.9456 21.8781H35.1217L36.0027 19.9064L34.1842 15.2299H34.9986L36.3922 18.9778Z" fill="#1E1E1F"/>
<path fill-rule="evenodd" clip-rule="evenodd" d="M8.85534 15.1349C9.31622 15.1349 9.70451 15.2394 10.0202 15.4483C10.3422 15.651 10.5789 15.9517 10.7304 16.3506C10.8883 16.7432 10.9514 17.2275 10.9198 17.8037H7.32118C7.35275 18.114 7.43798 18.3862 7.57688 18.6205C7.71577 18.8548 7.89887 19.0384 8.12615 19.1713C8.35343 19.298 8.61227 19.3613 8.90269 19.3613C9.22468 19.3613 9.49616 19.279 9.71713 19.1144C9.94441 18.9434 10.0991 18.7218 10.1812 18.4495H10.8914C10.8409 18.7598 10.7273 19.0384 10.5505 19.2853C10.38 19.5259 10.1528 19.719 9.86865 19.8647C9.59086 20.004 9.26887 20.0736 8.90269 20.0736C8.46075 20.0736 8.06301 19.9691 7.70945 19.7602C7.3559 19.5449 7.07496 19.2537 6.86661 18.8864C6.66458 18.5129 6.56357 18.0886 6.56357 17.6138C6.56357 17.1389 6.66142 16.7147 6.85714 16.3411C7.05917 15.9675 7.33381 15.6731 7.68105 15.4578C8.02829 15.2426 8.41972 15.1349 8.85534 15.1349ZM8.88376 15.8472C8.49233 15.8472 8.16403 15.9612 7.89886 16.1891C7.6337 16.4171 7.45692 16.7273 7.36853 17.1199H10.1433C10.118 16.702 9.98229 16.3854 9.73607 16.1702C9.49616 15.9549 9.21206 15.8472 8.88376 15.8472Z" fill="#1E1E1F"/>
<path d="M13.4499 15.1349C13.7655 15.1349 14.0307 15.1982 14.2453 15.3249C14.4663 15.4515 14.6336 15.632 14.7473 15.8662C14.8672 16.0942 14.9304 16.3601 14.9367 16.664H14.2832C14.239 16.3791 14.1475 16.1733 14.0086 16.0467C13.876 15.9137 13.6834 15.8472 13.4309 15.8472C13.1721 15.8472 12.9732 15.9042 12.8343 16.0182C12.6954 16.1322 12.6259 16.2841 12.6259 16.4741C12.6259 16.6134 12.6765 16.7305 12.7775 16.8255C12.8785 16.9141 13.0079 16.9964 13.1657 17.0724C13.3299 17.1421 13.5035 17.2149 13.6866 17.2909C13.8697 17.3668 14.0465 17.4428 14.2169 17.5188C14.3874 17.5948 14.5389 17.6834 14.6715 17.7847C14.8041 17.886 14.9083 18.0127 14.984 18.1646C15.0661 18.3102 15.1071 18.4939 15.1071 18.7155C15.1071 18.9814 15.044 19.2188 14.9177 19.4278C14.7978 19.6304 14.6178 19.7887 14.3779 19.9026C14.1443 20.0166 13.8571 20.0736 13.5161 20.0736C13.2068 20.0736 12.9416 20.0356 12.7206 19.9596C12.506 19.8773 12.3261 19.7728 12.1808 19.6462C12.0356 19.5132 11.922 19.374 11.8399 19.2283C11.7642 19.0827 11.7137 18.9402 11.6884 18.8009C11.6631 18.6616 11.6568 18.5445 11.6695 18.4495H12.3702C12.3892 18.7218 12.4902 18.9434 12.6733 19.1144C12.8627 19.2853 13.1342 19.3708 13.4877 19.3708C13.7024 19.3708 13.8697 19.3423 13.9896 19.2853C14.1159 19.2283 14.2075 19.1524 14.2643 19.0574C14.3211 18.9561 14.3495 18.8453 14.3495 18.725C14.3495 18.5793 14.3116 18.4654 14.2359 18.383C14.1664 18.2944 14.0686 18.2216 13.9423 18.1646C13.8223 18.1076 13.6834 18.0538 13.5256 18.0032C13.3425 17.9335 13.1531 17.8607 12.9574 17.7847C12.768 17.7024 12.5881 17.6074 12.4176 17.4998C12.2535 17.3858 12.1209 17.2497 12.0199 17.0914C11.9188 16.9268 11.8683 16.7305 11.8683 16.5026C11.8683 16.3126 11.9062 16.1353 11.982 15.9707C12.0577 15.7998 12.1651 15.6541 12.304 15.5338C12.4492 15.4072 12.6165 15.3091 12.8059 15.2394C13.0016 15.1698 13.2163 15.1349 13.4499 15.1349Z" fill="#1E1E1F"/>
<path d="M32.0757 15.1349C32.3914 15.1349 32.6565 15.1982 32.8712 15.3249C33.0922 15.4515 33.2595 15.632 33.3731 15.8662C33.4931 16.0942 33.5562 16.3601 33.5625 16.664H32.9091C32.8649 16.3791 32.7733 16.1733 32.6344 16.0467C32.5019 15.9137 32.3093 15.8472 32.0568 15.8472C31.7979 15.8472 31.5991 15.9042 31.4602 16.0182C31.3213 16.1322 31.2518 16.2841 31.2518 16.4741C31.2518 16.6134 31.3023 16.7305 31.4033 16.8255C31.5043 16.9141 31.6338 16.9964 31.7916 17.0724C31.9558 17.1421 32.1294 17.2149 32.3125 17.2909C32.4955 17.3668 32.6723 17.4428 32.8428 17.5188C33.0132 17.5948 33.1648 17.6834 33.2974 17.7847C33.4299 17.886 33.5341 18.0127 33.6099 18.1646C33.692 18.3102 33.733 18.4939 33.733 18.7155C33.733 18.9814 33.6698 19.2188 33.5436 19.4278C33.4236 19.6304 33.2437 19.7887 33.0038 19.9026C32.7702 20.0166 32.4829 20.0736 32.142 20.0736C31.8326 20.0736 31.5675 20.0356 31.3465 19.9596C31.1319 19.8773 30.9519 19.7728 30.8067 19.6462C30.6615 19.5132 30.5479 19.374 30.4658 19.2283C30.39 19.0827 30.3395 18.9402 30.3143 18.8009C30.289 18.6616 30.2827 18.5445 30.2953 18.4495H30.9961C31.0151 18.7218 31.1161 18.9434 31.2992 19.1144C31.4886 19.2853 31.76 19.3708 32.1136 19.3708C32.3282 19.3708 32.4956 19.3423 32.6155 19.2853C32.7418 19.2283 32.8333 19.1524 32.8901 19.0574C32.947 18.9561 32.9754 18.8453 32.9754 18.725C32.9754 18.5793 32.9375 18.4654 32.8617 18.383C32.7923 18.2944 32.6944 18.2216 32.5682 18.1646C32.4482 18.1076 32.3093 18.0538 32.1515 18.0032C31.9684 17.9335 31.779 17.8607 31.5833 17.7847C31.3939 17.7024 31.2139 17.6074 31.0435 17.4998C30.8793 17.3858 30.7467 17.2497 30.6457 17.0914C30.5447 16.9268 30.4942 16.7305 30.4942 16.5026C30.4942 16.3126 30.5321 16.1353 30.6078 15.9707C30.6836 15.7998 30.7909 15.6541 30.9298 15.5338C31.075 15.4072 31.2423 15.3091 31.4317 15.2394C31.6275 15.1698 31.8421 15.1349 32.0757 15.1349Z" fill="#1E1E1F"/>
<path d="M40.8522 15.1349C41.1679 15.1349 41.4331 15.1982 41.6477 15.3249C41.8687 15.4515 42.036 15.632 42.1497 15.8662C42.2696 16.0942 42.3328 16.3601 42.3391 16.664H41.6856C41.6414 16.3791 41.5499 16.1733 41.411 16.0467C41.2784 15.9137 41.0858 15.8472 40.8333 15.8472C40.5745 15.8472 40.3756 15.9042 40.2367 16.0182C40.0978 16.1322 40.0283 16.2841 40.0283 16.4741C40.0283 16.6134 40.0789 16.7305 40.1799 16.8255C40.2809 16.9141 40.4103 16.9964 40.5681 17.0724C40.7323 17.1421 40.9059 17.2149 41.089 17.2909C41.2721 17.3668 41.4489 17.4428 41.6193 17.5188C41.7898 17.5948 41.9413 17.6834 42.0739 17.7847C42.2065 17.886 42.3106 18.0127 42.3864 18.1646C42.4685 18.3102 42.5095 18.4939 42.5095 18.7155C42.5095 18.9814 42.4464 19.2188 42.3201 19.4278C42.2002 19.6304 42.0202 19.7887 41.7803 19.9026C41.5467 20.0166 41.2595 20.0736 40.9185 20.0736C40.6092 20.0736 40.344 20.0356 40.123 19.9596C39.9084 19.8773 39.7285 19.7728 39.5832 19.6462C39.438 19.5132 39.3244 19.374 39.2423 19.2283C39.1666 19.0827 39.1161 18.9402 39.0908 18.8009C39.0655 18.6616 39.0592 18.5445 39.0719 18.4495H39.7727C39.7916 18.7218 39.8926 18.9434 40.0757 19.1144C40.2651 19.2853 40.5366 19.3708 40.8901 19.3708C41.1048 19.3708 41.2721 19.3423 41.3921 19.2853C41.5183 19.2283 41.6099 19.1524 41.6667 19.0574C41.7235 18.9561 41.7519 18.8453 41.7519 18.725C41.7519 18.5793 41.714 18.4654 41.6383 18.383C41.5688 18.2944 41.471 18.2216 41.3447 18.1646C41.2247 18.1076 41.0858 18.0538 40.928 18.0032C40.7449 17.9335 40.5555 17.8607 40.3598 17.7847C40.1704 17.7024 39.9905 17.6074 39.82 17.4998C39.6559 17.3858 39.5233 17.2497 39.4223 17.0914C39.3212 16.9268 39.2707 16.7305 39.2707 16.5026C39.2707 16.3126 39.3086 16.1353 39.3844 15.9707C39.4601 15.7998 39.5675 15.6541 39.7064 15.5338C39.8516 15.4072 40.0189 15.3091 40.2083 15.2394C40.404 15.1698 40.6187 15.1349 40.8522 15.1349Z" fill="#1E1E1F"/>
<path fill-rule="evenodd" clip-rule="evenodd" d="M48.7613 15.1349C49.2222 15.1349 49.6105 15.2394 49.9261 15.4483C50.2481 15.651 50.4849 15.9517 50.6364 16.3506C50.7942 16.7432 50.8574 17.2275 50.8258 17.8037H47.2271C47.2587 18.114 47.3439 18.3862 47.4828 18.6205C47.6217 18.8548 47.8048 19.0384 48.0321 19.1713C48.2594 19.298 48.5182 19.3613 48.8087 19.3613C49.1306 19.3613 49.4021 19.279 49.6231 19.1144C49.8504 18.9434 50.005 18.7218 50.0871 18.4495H50.7974C50.7469 18.7598 50.6332 19.0384 50.4565 19.2853C50.286 19.5259 50.0587 19.719 49.7746 19.8647C49.4968 20.004 49.1748 20.0736 48.8087 20.0736C48.3667 20.0736 47.969 19.9691 47.6154 19.7602C47.2619 19.5449 46.9809 19.2537 46.7726 18.8864C46.5705 18.5129 46.4695 18.0886 46.4695 17.6138C46.4695 17.1389 46.5674 16.7147 46.7631 16.3411C46.9651 15.9675 47.2398 15.6731 47.587 15.4578C47.9342 15.2426 48.3257 15.1349 48.7613 15.1349ZM48.7897 15.8472C48.3983 15.8472 48.07 15.9612 47.8048 16.1891C47.5397 16.4171 47.3629 16.7273 47.2745 17.1199H50.0492C50.024 16.702 49.8883 16.3854 49.642 16.1702C49.4021 15.9549 49.118 15.8472 48.7897 15.8472Z" fill="#1E1E1F"/>
<path fill-rule="evenodd" clip-rule="evenodd" d="M2.44901 13.8053C3.06773 13.8053 3.58543 13.8876 4.00212 14.0522C4.42512 14.2105 4.76289 14.4321 5.01542 14.717C5.26796 15.002 5.45104 15.328 5.56469 15.6953C5.67833 16.0625 5.73516 16.4519 5.73516 16.8635C5.73516 17.275 5.67517 17.6676 5.55522 18.0412C5.43526 18.4147 5.24271 18.7471 4.97754 19.0384C4.71869 19.3296 4.38092 19.5607 3.96423 19.7317C3.54754 19.8963 3.04247 19.9786 2.44901 19.9786H0.450806V13.8053H2.44901ZM1.20842 19.2663H2.44901C2.94777 19.2663 3.35815 19.1967 3.68013 19.0574C4.00843 18.9181 4.26727 18.7345 4.45668 18.5065C4.64608 18.2723 4.77867 18.0127 4.85443 17.7277C4.9365 17.4428 4.97754 17.1547 4.97754 16.8635C4.97754 16.5722 4.9365 16.2873 4.85443 16.0087C4.77867 15.7301 4.64608 15.48 4.45668 15.2584C4.26727 15.0305 4.00843 14.85 3.68013 14.717C3.35815 14.5841 2.94777 14.5176 2.44901 14.5176H1.20842V19.2663Z" fill="#1E1E1F"/>
<path d="M16.9008 19.9786H16.1432V15.2299H16.9008V19.9786Z" fill="#1E1E1F"/>
<path d="M25.677 15.1349C25.9295 15.1349 26.1568 15.1729 26.3588 15.2489C26.5609 15.3249 26.7313 15.4357 26.8702 15.5813C27.0091 15.7269 27.1165 15.9042 27.1922 16.1132C27.268 16.3158 27.3059 16.5469 27.3059 16.8065V19.9786H26.5483V16.9964C26.5483 16.6292 26.463 16.3538 26.2926 16.1702C26.1221 15.9865 25.8664 15.8947 25.5255 15.8947C25.2666 15.8947 25.0267 15.9612 24.8057 16.0942C24.5848 16.2271 24.4017 16.4107 24.2565 16.645C24.1624 16.7994 24.093 16.9713 24.0481 17.1605V19.9786H23.2905V15.2299H24.0481V16.569C24.0818 16.4276 24.126 16.2946 24.1807 16.1702C24.2817 15.9549 24.4048 15.7713 24.55 15.6193C24.7016 15.461 24.872 15.3407 25.0614 15.2584C25.2571 15.1761 25.4623 15.1349 25.677 15.1349Z" fill="#1E1E1F"/>
<path d="M44.9188 15.2299H45.9321V15.9422H44.9188V19.9786H44.1612V15.9422H43.1479V15.2299H44.1612V13.9952H44.9188V15.2299Z" fill="#1E1E1F"/>
<path d="M57.3711 15.1349C57.6237 15.1349 57.851 15.1729 58.053 15.2489C58.255 15.3249 58.4255 15.4357 58.5644 15.5813C58.7033 15.7269 58.8106 15.9042 58.8864 16.1132C58.9621 16.3158 59 16.5469 59 16.8065V19.9786H58.2424V16.9964C58.2424 16.6292 58.1572 16.3538 57.9867 16.1702C57.8163 15.9865 57.5606 15.8947 57.2196 15.8947C56.9608 15.8947 56.7209 15.9612 56.4999 16.0942C56.2789 16.2271 56.0958 16.4107 55.9506 16.645C55.899 16.7297 55.8548 16.8197 55.8181 16.9148V19.9786H55.0604V16.9964C55.0604 16.6292 54.9752 16.3538 54.8047 16.1702C54.6343 15.9865 54.3786 15.8947 54.0377 15.8947C53.7788 15.8947 53.5389 15.9612 53.3179 16.0942C53.097 16.2271 52.9139 16.4107 52.7687 16.645C52.6746 16.7994 52.6052 16.9713 52.5603 17.1605V19.9786H51.8027V15.2299H52.5603V16.569C52.594 16.4276 52.6381 16.2946 52.6929 16.1702C52.7939 15.9549 52.917 15.7713 53.0622 15.6193C53.2138 15.461 53.3842 15.3407 53.5736 15.2584C53.7693 15.1761 53.9745 15.1349 54.1892 15.1349C54.4417 15.1349 54.669 15.1729 54.871 15.2489C55.0731 15.3249 55.2435 15.4357 55.3824 15.5813C55.5213 15.7269 55.6286 15.9042 55.7044 16.1132C55.7394 16.2067 55.7662 16.3063 55.7851 16.4119C55.8109 16.3281 55.8409 16.2475 55.8749 16.1702C55.9759 15.9549 56.099 15.7713 56.2442 15.6193C56.3957 15.461 56.5662 15.3407 56.7556 15.2584C56.9513 15.1761 57.1565 15.1349 57.3711 15.1349Z" fill="#1E1E1F"/>
<path d="M17.0145 14.2517H16.0296V13.3304H17.0145V14.2517Z" fill="#1E1E1F"/>
</g>
<defs>
<clipPath id="clip0_54_5">
<rect width="59" height="22" fill="white"/>
</clipPath>
</defs>
</svg>
