<svg width="320" height="180" viewBox="0 0 320 180" fill="none" xmlns="http://www.w3.org/2000/svg" aria-hidden="true">
  <rect width="320" height="180" fill="#F5F5F6"/>
  <rect x="40" y="48" width="120" height="84" rx="10" fill="#1E1E1F"/>
  <rect x="56" y="64" width="88" height="8" rx="2" fill="#FAFAFA" fill-opacity="0.92"/>
  <rect x="56" y="80" width="72" height="6" rx="2" fill="#FAFAFA" fill-opacity="0.55"/>
  <rect x="56" y="94" width="56" height="6" rx="2" fill="#FAFAFA" fill-opacity="0.4"/>
  <rect x="56" y="112" width="40" height="10" rx="5" fill="#FAFAFA" fill-opacity="0.85"/>
  <rect x="184" y="48" width="120" height="84" rx="10" fill="#FAFAFA" stroke="#1A1A1C" stroke-opacity="0.12"/>
  <rect x="200" y="64" width="88" height="8" rx="2" fill="#6E6E76"/>
  <rect x="200" y="80" width="72" height="6" rx="2" fill="#6E6E76" fill-opacity="0.65"/>
  <rect x="200" y="94" width="56" height="6" rx="2" fill="#6E6E76" fill-opacity="0.45"/>
  <rect x="200" y="112" width="40" height="10" rx="5" fill="#1E1E1F" fill-opacity="0.75"/>
  <circle cx="160" cy="90" r="22" stroke="#C94A4A" stroke-opacity="0.55" stroke-width="2"/>
  <circle cx="160" cy="90" r="14" stroke="#C94A4A" stroke-opacity="0.35" stroke-width="1.5" stroke-dasharray="3 3"/>
  <path d="M152 90H168M160 82V98" stroke="#C94A4A" stroke-opacity="0.7" stroke-width="1.5" stroke-linecap="round"/>
  <path d="M88 36L96 44M232 36L224 44" stroke="#1A1A1C" stroke-opacity="0.15" stroke-width="1.5" stroke-linecap="round"/>
</svg>
