<svg width="320" height="180" viewBox="0 0 320 180" fill="none" xmlns="http://www.w3.org/2000/svg" aria-hidden="true">
  <rect width="320" height="180" fill="#F5F5F6"/>
  <rect x="48" y="36" width="224" height="108" rx="12" fill="#FAFAFA" stroke="#1A1A1C" stroke-opacity="0.08"/>
  <rect x="72" y="58" width="88" height="32" rx="8" fill="#1E1E1F"/>
  <rect x="72" y="58" width="52" height="32" rx="8" stroke="#FAFAFA" stroke-opacity="0.35" stroke-width="1.5" fill="none"/>
  <rect x="172" y="64" width="76" height="20" rx="6" fill="#FAFAFA" stroke="#1A1A1C" stroke-opacity="0.14"/>
  <rect x="180" y="70" width="40" height="8" rx="2" fill="#6E6E76" fill-opacity="0.45"/>
  <rect x="72" y="104" width="16" height="16" rx="4" stroke="#1E1E1F" stroke-width="1.5"/>
  <path d="M76 110L80 114L84 108" stroke="#1E1E1F" stroke-width="1.5" stroke-linecap="round" stroke-linejoin="round"/>
  <rect x="96" y="106" width="48" height="6" rx="2" fill="#1E1E1F" fill-opacity="0.75"/>
  <rect x="172" y="100" width="56" height="24" rx="12" fill="#C94A4A" fill-opacity="0.12" stroke="#C94A4A" stroke-opacity="0.35"/>
  <rect x="184" y="108" width="32" height="8" rx="4" fill="#C94A4A" fill-opacity="0.65"/>
  <circle cx="248" cy="52" r="14" fill="#EA5757" fill-opacity="0.12"/>
  <circle cx="248" cy="52" r="6" fill="#EA5757" fill-opacity="0.8"/>
</svg>
