<svg width="320" height="180" viewBox="0 0 320 180" fill="none" xmlns="http://www.w3.org/2000/svg" aria-hidden="true">
  <rect width="320" height="180" fill="#0F0F13"/>
  <rect x="32" y="28" width="256" height="32" rx="8" fill="#18181D" stroke="#F2F2F3" stroke-opacity="0.1"/>
  <rect x="44" y="38" width="64" height="12" rx="3" fill="#E4E4E7" fill-opacity="0.2"/>
  <rect x="220" y="38" width="56" height="12" rx="6" fill="#F2F2F3" fill-opacity="0.1"/>
  <rect x="32" y="72" width="120" height="80" rx="10" fill="#18181D" stroke="#F2F2F3" stroke-opacity="0.1"/>
  <rect x="44" y="84" width="72" height="8" rx="2" fill="#E4E4E7" fill-opacity="0.78"/>
  <rect x="44" y="100" width="96" height="6" rx="2" fill="#A1A1AA" fill-opacity="0.65"/>
  <rect x="44" y="116" width="56" height="6" rx="2" fill="#71717A" fill-opacity="0.5"/>
  <rect x="44" y="132" width="40" height="10" rx="5" fill="#E4E4E7" fill-opacity="0.9"/>
  <rect x="164" y="72" width="124" height="36" rx="8" fill="#18181D" stroke="#F2F2F3" stroke-opacity="0.1"/>
  <rect x="164" y="116" width="124" height="36" rx="8" fill="#18181D" stroke="#F2F2F3" stroke-opacity="0.1"/>
  <rect x="176" y="84" width="48" height="6" rx="2" fill="#E4E4E7" fill-opacity="0.62"/>
  <rect x="176" y="128" width="64" height="6" rx="2" fill="#E4E4E7" fill-opacity="0.62"/>
  <path d="M152 92V132" stroke="#C94A4A" stroke-opacity="0.5" stroke-width="1.5" stroke-dasharray="4 4"/>
</svg>
