<svg width="320" height="180" viewBox="0 0 320 180" fill="none" xmlns="http://www.w3.org/2000/svg" aria-hidden="true">
  <rect width="320" height="180" fill="#F5F5F6"/>
  <rect x="32" y="28" width="256" height="32" rx="8" fill="#FAFAFA" stroke="#1A1A1C" stroke-opacity="0.08"/>
  <rect x="44" y="38" width="64" height="12" rx="3" fill="#1E1E1F" fill-opacity="0.12"/>
  <rect x="220" y="38" width="56" height="12" rx="6" fill="#1E1E1F" fill-opacity="0.08"/>
  <rect x="32" y="72" width="120" height="80" rx="10" fill="#FAFAFA" stroke="#1A1A1C" stroke-opacity="0.08"/>
  <rect x="44" y="84" width="72" height="8" rx="2" fill="#1E1E1F" fill-opacity="0.7"/>
  <rect x="44" y="100" width="96" height="6" rx="2" fill="#6E6E76" fill-opacity="0.5"/>
  <rect x="44" y="116" width="56" height="6" rx="2" fill="#6E6E76" fill-opacity="0.35"/>
  <rect x="44" y="132" width="40" height="10" rx="5" fill="#1E1E1F" fill-opacity="0.85"/>
  <rect x="164" y="72" width="124" height="36" rx="8" fill="#FAFAFA" stroke="#1A1A1C" stroke-opacity="0.08"/>
  <rect x="164" y="116" width="124" height="36" rx="8" fill="#FAFAFA" stroke="#1A1A1C" stroke-opacity="0.08"/>
  <rect x="176" y="84" width="48" height="6" rx="2" fill="#1E1E1F" fill-opacity="0.55"/>
  <rect x="176" y="128" width="64" height="6" rx="2" fill="#1E1E1F" fill-opacity="0.55"/>
  <path d="M152 92V132" stroke="#C94A4A" stroke-opacity="0.35" stroke-width="1.5" stroke-dasharray="4 4"/>
</svg>
